# xmcd
#
# Track frame offsets:
#   150
#   13812
#   30523
#   42379
#   54963
#   72438
#   87050
#   102076
#   115780
#   126735
#   141048
#   161009
#   172512
#   183732
#   202562
#   217252
#   237844
#   256145
#   272198
#   286218
#   301741
#   317708
#   329470
#   342597
#
# Disc length: 4781 seconds
#
# Revision: 0
# Processed by: cddbd v1.5.1PL2 Copyright (c) Steve Scherf et al.
# Submitted via: GXTranscoder 2.0.1939
#
DISCID=5912ab18
DTITLE=Alegres de la sierra - 24 exitos de oro
DYEAR=2005
DGENRE=Country
TTITLE0=intro mix
TTITLE1=asi como hoy
TTITLE2=nunca mas podre olvidarte
TTITLE3=mi negra suerte
TTITLE4=atrapado
TTITLE5=palabritas
TTITLE6=amargo dolor
TTITLE7=arboles de la barranca
TTITLE8=buscando novia
TTITLE9=suerte he tenido
TTITLE10=el columpio
TTITLE11=me voy a cortar las venas
TTITLE12=te quiero por que
TTITLE13=la guaresita
TTITLE14=las uvas
TTITLE15=los hermanos mata
TTITLE16=paso del norte
TTITLE17=paloma sin nido
TTITLE18=corazon necio
TTITLE19=de puntitas
TTITLE20=cancion de paz
TTITLE21=alegre me ando paseando
TTITLE22=lloraras
TTITLE23=cangrejito playero
EXTD=
EXTT0=
EXTT1=
EXTT2=
EXTT3=
EXTT4=
EXTT5=
EXTT6=
EXTT7=
EXTT8=
EXTT9=
EXTT10=
EXTT11=
EXTT12=
EXTT13=
EXTT14=
EXTT15=
EXTT16=
EXTT17=
EXTT18=
EXTT19=
EXTT20=
EXTT21=
EXTT22=
EXTT23=
PLAYORDER=
